<svg width="176" height="48" viewBox="0 0 176 48" fill="none" xmlns="http://www.w3.org/2000/svg">
<path d="M34.2932 44.9993C31.4131 45.0292 28.6047 44.1013 26.3094 42.3615C26.1947 42.2646 26.1214 42.1274 26.1049 41.9782C26.0883 41.829 26.1297 41.6791 26.2204 41.5594C26.3112 41.4398 26.4444 41.3596 26.5926 41.3353C26.7408 41.311 26.8926 41.3445 27.0168 41.429C29.1085 43.0095 31.6652 43.8518 34.2868 43.8241C36.8976 43.8291 39.4407 42.9944 41.5408 41.4433C41.6016 41.399 41.6705 41.3671 41.7437 41.3495C41.8168 41.332 41.8928 41.3292 41.967 41.3412C42.0413 41.3532 42.1124 41.3799 42.1763 41.4196C42.2402 41.4594 42.2956 41.5114 42.3392 41.5727C42.43 41.6989 42.4674 41.8559 42.4432 42.0096C42.4189 42.1633 42.3351 42.3012 42.2099 42.3934C39.9181 44.0968 37.1358 45.0112 34.2804 44.9993H34.2932Z" fill="black"/>
<path d="M23.7082 39.4346C23.6136 39.4334 23.5207 39.4094 23.4373 39.3646C23.3539 39.3199 23.2825 39.2557 23.2292 39.1776C21.6727 36.9403 20.8415 34.2786 20.8484 31.5531C20.8471 29.4522 21.3383 27.3802 22.2826 25.5036C23.227 23.6269 24.5981 21.9977 26.286 20.7468C27.9739 19.4959 29.9315 18.6581 32.0017 18.3007C34.072 17.9432 36.1972 18.0761 38.2068 18.6887C40.2164 19.3012 42.0544 20.3763 43.5734 21.8278C45.0923 23.2792 46.2498 25.0665 46.953 27.0462C47.6561 29.0259 47.8854 31.1429 47.6224 33.2272C47.3594 35.3116 46.6113 37.3053 45.4384 39.0482C45.3534 39.172 45.2241 39.2585 45.0773 39.2898C44.9304 39.321 44.7771 39.2947 44.6491 39.2162C44.521 39.1378 44.428 39.0132 44.3892 38.8681C44.3503 38.723 44.3687 38.5686 44.4404 38.4367C44.4564 38.4207 44.4564 38.4047 44.4724 38.3888C45.5406 36.796 46.2208 34.975 46.4584 33.0719C46.6959 31.1688 46.4843 29.2366 45.8405 27.43C45.1966 25.6235 44.1384 23.9929 42.7508 22.669C41.3631 21.3452 39.6846 20.3649 37.8498 19.8067C36.0149 19.2486 34.0748 19.1281 32.185 19.4549C30.2952 19.7818 28.5083 20.5469 26.9675 21.6889C25.4267 22.8308 24.1749 24.318 23.3125 26.031C22.4501 27.744 22.001 29.6352 22.0013 31.5531C21.9814 34.0394 22.7408 36.4695 24.1729 38.5021C24.2564 38.6282 24.2879 38.7817 24.2608 38.9305C24.2337 39.0793 24.1501 39.2119 24.0276 39.3005C23.9906 39.3484 23.9415 39.3856 23.8854 39.4084C23.8293 39.4311 23.7681 39.4385 23.7082 39.4298V39.4346Z" fill="black"/>
<path d="M34.405 36.9245C33.7083 36.9245 33.0273 36.7179 32.448 36.3309C31.8688 35.9438 31.4173 35.3937 31.1507 34.7501C30.8841 34.1064 30.8143 33.3982 30.9503 32.7149C31.0862 32.0316 31.4216 31.404 31.9143 30.9114C32.4069 30.4187 33.0345 30.0833 33.7178 29.9474C34.4011 29.8114 35.1093 29.8812 35.753 30.1478C36.3966 30.4144 36.9467 30.8659 37.3338 31.4451C37.7208 32.0244 37.9274 32.7054 37.9274 33.4021C37.9274 34.3363 37.5563 35.2323 36.8957 35.8928C36.2351 36.5534 35.3392 36.9245 34.405 36.9245ZM34.405 30.892C33.9086 30.892 33.4232 31.0392 33.0105 31.315C32.5977 31.5908 32.276 31.9829 32.086 32.4415C31.896 32.9002 31.8463 33.4049 31.9431 33.8918C32.04 34.3787 32.2791 34.826 32.6301 35.177C32.9811 35.528 33.4284 35.7671 33.9153 35.864C34.4022 35.9608 34.9069 35.9111 35.3656 35.7211C35.8242 35.5311 36.2162 35.2094 36.4921 34.7966C36.7679 34.3839 36.9151 33.8986 36.9151 33.4021C36.9142 32.7366 36.6495 32.0987 36.179 31.6281C35.7084 31.1576 35.0705 30.8929 34.405 30.892Z" fill="black"/>
<path d="M31.8804 31.9539C31.8042 31.9543 31.7286 31.9396 31.6581 31.9106C31.5876 31.8816 31.5235 31.839 31.4696 31.785C31.4157 31.7311 31.373 31.6671 31.344 31.5966C31.3151 31.526 31.3004 31.4505 31.3008 31.3742V18.9899C31.3086 18.8416 31.373 18.702 31.4806 18.5998C31.5883 18.4976 31.7311 18.4406 31.8796 18.4406C32.0281 18.4406 32.1709 18.4976 32.2786 18.5998C32.3863 18.702 32.4506 18.8416 32.4584 18.9899V31.3758C32.4586 31.4518 32.4438 31.5271 32.4149 31.5973C32.3859 31.6675 32.3433 31.7313 32.2896 31.785C32.2359 31.8388 32.1721 31.8813 32.1019 31.9103C32.0316 31.9393 31.9564 31.9541 31.8804 31.9539Z" fill="black"/>
<path d="M36.9471 32.0992C36.8708 32.0996 36.7953 32.0849 36.7247 32.0559C36.6542 32.0269 36.5902 31.9843 36.5363 31.9304C36.4824 31.8765 36.4397 31.8124 36.4107 31.7419C36.3817 31.6714 36.367 31.5958 36.3674 31.5196V19.0378C36.3752 18.8895 36.4396 18.7499 36.5473 18.6477C36.655 18.5455 36.7978 18.4886 36.9463 18.4886C37.0947 18.4886 37.2375 18.5455 37.3452 18.6477C37.4529 18.7499 37.5173 18.8895 37.5251 19.0378V31.5196C37.5255 31.5958 37.5108 31.6714 37.4818 31.7419C37.4528 31.8124 37.4102 31.8765 37.3563 31.9304C37.3024 31.9843 37.2383 32.0269 37.1678 32.0559C37.0973 32.0849 37.0233 32.0996 36.9471 32.0992Z" fill="black"/>
<path d="M34.4224 37.1976C29.9256 37.3185 25.4864 36.1643 21.618 33.8684C21.4942 33.7834 21.4078 33.6542 21.3765 33.5073C21.3452 33.3604 21.3715 33.2071 21.45 33.0791C21.5285 32.951 21.6531 32.858 21.7982 32.8192C21.9432 32.7804 22.0977 32.7987 22.2296 32.8704C22.2456 32.8864 22.2615 32.8864 22.2775 32.9024C28.5831 37.1002 40.7758 37.0364 46.422 32.773C46.5461 32.6886 46.698 32.6551 46.8462 32.6794C46.9943 32.7037 47.1275 32.7839 47.2183 32.9035C47.309 33.0231 47.3504 33.173 47.3338 33.3223C47.3173 33.4715 47.2441 33.6087 47.1293 33.7055C43.3564 36.1549 38.917 37.376 34.4224 37.1976Z" fill="black"/>
<path d="M37.0108 32.2604C36.8561 32.2589 36.7078 32.1978 36.5969 32.0899C36.486 31.982 36.421 31.8355 36.4152 31.6808C36.4116 31.5344 36.4648 31.3923 36.5636 31.2843C36.6624 31.1763 36.7992 31.1106 36.9453 31.1012C40.3039 30.8332 43.5563 29.7986 46.4524 28.077C46.5848 28.0005 46.7416 27.9779 46.8902 28.0139C47.0388 28.0499 47.1679 28.1416 47.2508 28.2702C47.3309 28.4017 47.3556 28.5596 47.3194 28.7093C47.2831 28.859 47.189 28.9882 47.0576 29.0685C44.0124 30.8882 40.5886 31.981 37.0523 32.262L37.0044 32.2461L37.0108 32.2604Z" fill="black"/>
<path d="M31.5579 32.3403H31.494C28.1144 31.9189 24.8482 30.848 21.8752 29.1867C21.7386 29.1141 21.6365 28.9902 21.5913 28.8422C21.5461 28.6943 21.5615 28.5345 21.6341 28.3979C21.7067 28.2613 21.8306 28.1592 21.9785 28.114C22.1265 28.0688 22.2863 28.0842 22.4229 28.1568C25.265 29.7509 28.3897 30.778 31.6233 31.181C31.769 31.1997 31.9023 31.2728 31.9963 31.3857C32.0902 31.4986 32.138 31.6429 32.1299 31.7896C32.1218 31.9362 32.0585 32.0744 31.9526 32.1763C31.8468 32.2781 31.7063 32.3362 31.5595 32.3387L31.5579 32.3403Z" fill="black"/>
<path d="M34.3891 22.2217C34.9218 22.2217 35.3536 21.7899 35.3536 21.2572C35.3536 20.7246 34.9218 20.2928 34.3891 20.2928C33.8565 20.2928 33.4247 20.7246 33.4247 21.2572C33.4247 21.7899 33.8565 22.2217 34.3891 22.2217Z" fill="black"/>
<path d="M34.3891 25.4216C34.9218 25.4216 35.3536 24.9898 35.3536 24.4571C35.3536 23.9245 34.9218 23.4927 34.3891 23.4927C33.8565 23.4927 33.4247 23.9245 33.4247 24.4571C33.4247 24.9898 33.8565 25.4216 34.3891 25.4216Z" fill="black"/>
<path d="M34.3891 28.6071C34.9218 28.6071 35.3536 28.1753 35.3536 27.6427C35.3536 27.11 34.9218 26.6782 34.3891 26.6782C33.8565 26.6782 33.4247 27.11 33.4247 27.6427C33.4247 28.1753 33.8565 28.6071 34.3891 28.6071Z" fill="black"/>
<path d="M40.6946 34.3985C41.2008 34.3985 41.6111 33.9739 41.6111 33.45C41.6111 32.9262 41.2008 32.5016 40.6946 32.5016C40.1884 32.5016 39.7781 32.9262 39.7781 33.45C39.7781 33.9739 40.1884 34.3985 40.6946 34.3985Z" fill="black"/>
<path d="M44.2809 33.1275C44.7871 33.1275 45.1974 32.7029 45.1974 32.179C45.1974 31.6552 44.7871 31.2306 44.2809 31.2306C43.7747 31.2306 43.3644 31.6552 43.3644 32.179C43.3644 32.7029 43.7747 33.1275 44.2809 33.1275Z" fill="black"/>
<path d="M28.0994 34.3665C28.6056 34.3665 29.0159 33.9419 29.0159 33.4181C29.0159 32.8942 28.6056 32.4696 28.0994 32.4696C27.5932 32.4696 27.1829 32.8942 27.1829 33.4181C27.1829 33.9419 27.5932 34.3665 28.0994 34.3665Z" fill="black"/>
<path d="M24.4955 33.1594C25.0017 33.1594 25.412 32.7348 25.412 32.211C25.412 31.6871 25.0017 31.2625 24.4955 31.2625C23.9893 31.2625 23.579 31.6871 23.579 32.211C23.579 32.7348 23.9893 33.1594 24.4955 33.1594Z" fill="black"/>
<path d="M34.5007 42.7479C19.5088 42.7479 4.00281 39.4826 4.00281 34.0137C4.00281 30.2821 10.8688 27.2579 22.3574 25.923L23.258 25.8272L22.2441 28.9153L21.8896 28.9791C14.5701 30.2023 11.9802 32.1966 11.9802 33.5155C11.9802 36.1054 21.1327 38.9844 34.2916 38.9844C47.4504 38.9844 56.603 36.1102 56.603 33.5155C56.603 32.1966 53.9971 30.2023 46.6776 28.9791L46.3231 28.9153L45.3091 25.7952L46.2097 25.891C55.2984 26.9209 64.9971 29.5907 64.9971 33.9977C64.9811 39.4826 49.4767 42.7479 34.5007 42.7479ZM21.5846 27.1924C10.2477 28.6295 5.16045 31.6314 5.16045 34.0121C5.16045 37.6639 16.9509 41.5887 34.5007 41.5887C52.0506 41.5887 63.841 37.6798 63.841 34.0121C63.841 31.1811 56.9558 28.3979 46.9666 27.1589L47.2077 27.8981C51.3097 28.6215 57.7606 30.2629 57.7606 33.5123C57.7606 37.8235 45.6636 40.1388 34.2884 40.1388C22.9131 40.1388 10.8161 37.8219 10.8161 33.5123C10.8161 30.231 17.251 28.5895 21.3547 27.8822L21.5798 27.1908L21.5846 27.1924Z" fill="black"/>
<path d="M38.9795 20.2114C37.0012 18.6146 35.216 14.9038 36.0846 13.3102C36.1947 13.0968 36.3544 12.9129 36.5503 12.774C36.7462 12.6351 36.9725 12.5452 37.2103 12.5118C38.5938 12.6057 39.8973 13.194 40.8829 14.1693V8.75788C39.3548 9.99696 37.7309 10.7522 36.3625 9.36944C35.2847 8.27566 36.4918 5.68573 37.3764 4.15764H31.4253C32.9853 6.97271 33.0221 8.62854 32.4872 9.26725C31.5291 10.4089 30.1224 10.2492 28.0163 8.71956V14.1964C28.9947 13.2441 30.275 12.6634 31.6361 12.555C31.8814 12.5869 32.1162 12.6746 32.3224 12.8113C32.5286 12.9481 32.7007 13.1302 32.8257 13.3437C33.9673 15.2742 31.5068 18.4422 29.8653 20.0198L29.0669 19.1831C30.9 17.4139 32.4456 14.9692 31.8341 13.9393C31.8037 13.8744 31.7561 13.819 31.6964 13.7793C31.6367 13.7396 31.5672 13.7171 31.4956 13.7142C30.6589 13.6008 28.8418 14.9373 27.8438 15.9017L26.8618 16.8598V6.32124L27.8103 7.09407C30.7707 9.50676 31.3966 8.76746 31.6057 8.53114C31.7351 8.32197 31.8149 6.93439 29.9324 3.883L29.3368 3H39.4586L38.8789 3.90057C37.7053 5.73364 36.7233 8.11439 37.1736 8.56467C37.7037 9.0948 38.4766 9.46524 41.0505 7.05255L42.0325 6.13602V16.8183L41.0505 15.8698C40.0206 14.8718 38.2195 13.521 37.378 13.6503C37.3159 13.6573 37.2566 13.6802 37.206 13.7169C37.1553 13.7535 37.115 13.8027 37.089 13.8595C36.6547 14.6579 37.8123 17.7843 39.6949 19.2964L38.9795 20.2114Z" fill="black"/>
<path d="M34.3571 14.5812C33.6889 14.5812 33.0356 14.3831 32.48 14.0118C31.9244 13.6406 31.4913 13.1129 31.2356 12.4955C30.9799 11.8781 30.9129 11.1988 31.0433 10.5434C31.1737 9.88795 31.4955 9.28592 31.968 8.8134C32.4405 8.34088 33.0426 8.01908 33.698 7.88871C34.3534 7.75835 35.0327 7.82526 35.6501 8.08098C36.2675 8.33671 36.7952 8.76977 37.1664 9.3254C37.5377 9.88103 37.7358 10.5343 37.7358 11.2025C37.7361 11.6463 37.6488 12.0857 37.4791 12.4957C37.3094 12.9058 37.0605 13.2783 36.7467 13.5921C36.4329 13.9059 36.0604 14.1548 35.6503 14.3245C35.2403 14.4942 34.8009 14.5815 34.3571 14.5812ZM34.3571 8.83294C33.8894 8.83294 33.4322 8.97163 33.0433 9.23148C32.6544 9.49132 32.3513 9.86065 32.1723 10.2928C31.9934 10.7249 31.9465 11.2003 32.0378 11.6591C32.129 12.1178 32.3542 12.5392 32.685 12.8699C33.0157 13.2006 33.4371 13.4258 33.8958 13.5171C34.3545 13.6083 34.83 13.5615 35.2621 13.3825C35.6942 13.2035 36.0635 12.9004 36.3234 12.5115C36.5832 12.1226 36.7219 11.6654 36.7219 11.1977C36.7211 10.5708 36.4716 9.9698 36.0283 9.5265C35.585 9.0832 34.984 8.83378 34.3571 8.83294Z" fill="black"/>
<path d="M95.3458 9.64677C96.4047 9.64677 97.2631 8.78835 97.2631 7.72943C97.2631 6.67052 96.4047 5.8121 95.3458 5.8121C94.2869 5.8121 93.4285 6.67052 93.4285 7.72943C93.4285 8.78835 94.2869 9.64677 95.3458 9.64677Z" fill="black"/>
<path d="M110.326 9.64677C111.385 9.64677 112.243 8.78835 112.243 7.72943C112.243 6.67052 111.385 5.8121 110.326 5.8121C109.267 5.8121 108.408 6.67052 108.408 7.72943C108.408 8.78835 109.267 9.64677 110.326 9.64677Z" fill="black"/>
<path d="M98.0609 21.4756C97.8628 21.4884 97.6668 21.4287 97.5096 21.3075C97.3523 21.1864 97.2446 21.0121 97.2065 20.8172C96.5483 17.7254 96.5483 14.5297 97.2065 11.4379C97.258 11.2367 97.3791 11.0602 97.5482 10.9397C97.7174 10.8192 97.9237 10.7625 98.1306 10.7795C98.7633 10.7795 98.637 10.1274 98.637 10.1274H92.3548C92.0444 10.1274 91.937 10.7795 92.5633 10.7795C92.7703 10.7625 92.9766 10.8192 93.1458 10.9397C93.3149 11.0602 93.4359 11.2367 93.4875 11.4379C94.1457 14.5297 94.1457 17.7254 93.4875 20.8172C93.4441 21.0144 93.3284 21.1882 93.1634 21.3045C92.9983 21.4208 92.7957 21.471 92.5954 21.4454C91.9628 21.4454 91.9628 22.129 92.4754 22.129H98.1294C98.6872 22.1271 98.6942 21.4756 98.0609 21.4756Z" fill="black"/>
<path d="M113.047 21.4756C112.849 21.4884 112.653 21.4287 112.496 21.3075C112.339 21.1863 112.231 21.012 112.193 20.8172C111.859 19.2764 111.694 17.704 111.699 16.1275C111.66 14.7368 111.776 13.346 112.047 11.9813C112.105 11.5141 112.21 11.0539 112.361 10.608C112.462 10.3359 112.437 10.133 111.906 10.133H107.337C107.033 10.133 106.913 10.7851 107.545 10.7851C107.752 10.7681 107.959 10.8249 108.128 10.9454C108.297 11.0659 108.418 11.2423 108.469 11.4435C109.128 14.5353 109.128 17.731 108.469 20.8228C108.426 21.02 108.31 21.1939 108.145 21.3101C107.98 21.4264 107.778 21.4766 107.577 21.4511C106.945 21.4511 106.945 22.1346 107.457 22.1346H113.111C113.667 22.127 113.674 21.4756 113.047 21.4756Z" fill="black"/>
<path d="M171.538 42.0756C171.333 42.0932 171.128 42.0383 170.959 41.9202C170.79 41.8022 170.668 41.6286 170.614 41.4298C170.254 39.5376 170.12 37.0882 170.12 33.1373C170.127 30.415 170.292 27.6955 170.614 24.9924C170.684 24.5809 170.715 24.4358 170.747 24.2077C170.778 23.9797 170.646 23.7014 170.133 23.7014H165.969C165.418 23.7014 165.412 24.3403 166.038 24.3403C166.235 24.3269 166.429 24.3849 166.586 24.5036C166.743 24.6222 166.852 24.7936 166.893 24.9861C167.196 26.3797 167.36 27.8004 167.38 29.2266V30.8091C167.247 31.0176 167.089 31.132 166.918 31.0114C166.207 30.3886 165.281 30.0665 164.336 30.113C162.602 30.113 159.729 32.5304 159.729 36.676C159.729 40.8217 161.722 43.0362 163.495 43.0362C166.02 43.0362 166.589 40.7896 166.994 41.1628C166.941 41.5294 166.852 41.8898 166.729 42.2389C166.634 42.5047 166.653 42.707 167.184 42.707H171.753C172.056 42.7208 172.17 42.0756 171.538 42.0756ZM166.754 39.5948C166.489 39.8845 166.149 40.0948 165.772 40.2021C165.395 40.3094 164.995 40.3094 164.618 40.2022C163.656 39.9679 162.89 38.8729 162.555 38.0035C162.326 37.306 162.201 36.5791 162.182 35.8455C162.08 34.3076 162.555 30.8015 164.764 30.8015C166.067 30.8015 166.991 32.1051 167.384 33.6116V36.8073C167.378 37.3727 167.365 37.8326 167.346 38.2315C167.256 38.7239 167.055 39.1893 166.758 39.5922L166.754 39.5948Z" fill="black"/>
<path d="M108.68 10.248L107.63 10.1343C106.984 10.1343 104.352 10.1406 104.023 10.1406C103.693 10.1406 103.719 10.4314 103.889 10.5395C104.274 10.745 104.587 11.0627 104.787 11.4503C104.988 11.838 105.065 12.2773 105.01 12.71C104.669 13.8336 104.206 14.9161 103.627 15.9378C103.502 16.1784 103.273 16.2349 103.109 16.0327C102.428 14.6139 102.003 13.0864 101.852 11.5201C101.84 11.2607 101.789 10.9629 102.166 10.8241C102.543 10.6852 102.533 10.133 102.173 10.133H97.4577C96.7742 10.133 97.1348 10.7154 97.6663 11.4429C98.7041 12.9173 99.5845 14.4965 100.293 16.1545C100.933 17.7153 101.478 19.313 101.926 20.9391C101.989 21.1608 102.325 22.4895 102.375 22.6353C102.451 22.8507 102.705 22.8759 102.781 22.6604C103.262 20.6796 103.717 19.8189 104.913 18.8502C105.496 18.369 105.002 18.0656 104.717 17.9079C104.457 17.7482 104.218 17.5544 104.009 17.3318C103.984 17.2466 103.976 17.1572 103.987 17.069C103.998 16.9808 104.027 16.8958 104.072 16.8192C104.293 16.3574 105.572 13.2057 105.97 12.585C106.213 12.135 106.548 11.7416 106.954 11.4307C107.359 11.1198 107.826 10.8985 108.324 10.7814C108.921 10.6281 108.68 10.248 108.68 10.248Z" fill="black"/>
<path d="M123.42 13.1667C122.989 11.3757 119.053 8.26659 114.977 11.6477C110.75 15.3247 113.692 22.2169 118.236 22.2169C122.78 22.2169 123.293 18.6731 123.059 17.5781C123.059 17.5781 122.894 16.8311 122.362 17.5781C119.363 20.7424 116.897 18.2553 116.597 17.4449C117.23 17.078 123.131 13.9639 123.131 13.9639C123.233 13.8592 123.311 13.7339 123.361 13.5965C123.411 13.459 123.431 13.3125 123.42 13.1667ZM119.92 14.6035C118.804 15.3209 117.649 15.9739 116.458 16.5591C116.262 16.6414 116.059 16.8374 115.794 16.1539L115.629 15.787C115.521 15.4788 115.427 15.1663 115.345 14.8504C114.535 11.6986 117.547 10.7556 118.971 11.338C120.394 11.9203 120.37 14.2108 119.92 14.6035Z" fill="black"/>
<path d="M158.469 13.1667C158.039 11.3757 154.102 8.26659 150.026 11.6477C145.799 15.3247 148.742 22.2169 153.279 22.2169C157.817 22.2169 158.336 18.6731 158.102 17.5781C158.102 17.5781 157.937 16.8311 157.405 17.5781C154.406 20.7424 151.94 18.2553 151.64 17.4449C152.269 17.078 158.174 13.9639 158.174 13.9639C158.174 13.9639 158.57 13.5581 158.469 13.1667ZM154.976 14.6035C153.86 15.3209 152.704 15.9739 151.514 16.5591C151.318 16.6414 151.115 16.8374 150.849 16.1539L150.685 15.787C150.577 15.4788 150.482 15.1663 150.4 14.8504C149.59 11.6986 152.603 10.7556 154.026 11.338C155.45 11.9203 155.425 14.2115 154.976 14.6047V14.6035Z" fill="black"/>
<path d="M103.472 33.3992C103.029 31.4819 98.9851 28.1529 94.7955 31.7728C90.4538 35.7155 93.4731 43.0946 98.1432 43.0946C102.813 43.0946 103.339 39.2976 103.099 38.1266C103.099 38.1266 102.928 37.3294 102.384 38.1266C99.3017 41.519 96.7637 38.8547 96.454 37.9871C97.0998 37.5945 103.162 34.2593 103.162 34.2593C103.272 34.1463 103.357 34.0111 103.41 33.8628C103.464 33.7144 103.485 33.5564 103.472 33.3992ZM99.8771 34.9402C98.7326 35.706 97.545 36.4053 96.3201 37.0347C96.1179 37.1233 95.9087 37.3388 95.6366 36.6044L95.4721 36.2118C95.361 35.8809 95.264 35.5456 95.1812 35.2066C94.3457 31.8337 97.4466 30.821 98.9153 31.4411C100.384 32.0611 100.339 34.5193 99.8771 34.9402Z" fill="black"/>
<path d="M147.109 21.7413C147.065 21.6019 146.92 21.4819 146.647 21.4819C146.45 21.4947 146.256 21.4356 146.1 21.3156C145.944 21.1956 145.837 21.0229 145.799 20.8298C145.773 20.6012 145.799 20.3698 145.875 20.1525C146.223 19.1719 146.736 18.2541 147.058 17.2627C147.489 16.081 147.66 14.8206 147.561 13.5669C147.447 12.6107 147.002 11.7244 146.305 11.0609C145.723 10.4595 144.951 10.0789 144.119 9.9842C143.288 9.88954 142.45 10.0867 141.748 10.542C141.501 10.7003 141.021 11.1181 140.71 11.1074C140.445 11.1011 140.413 10.9491 140.413 10.7845C140.432 10.7336 140.445 10.6834 140.464 10.6262C140.565 10.3542 140.54 10.1513 140.009 10.1513H135.446C135.142 10.1513 135.022 10.8034 135.654 10.8034C135.861 10.7863 136.068 10.8431 136.237 10.9636C136.406 11.0841 136.527 11.2606 136.578 11.4617C137.237 14.5535 137.237 17.7493 136.578 20.8411C136.514 21.0402 136.385 21.2123 136.212 21.3303C136.039 21.4483 135.832 21.5056 135.623 21.4932C135.338 21.4995 135.047 21.4743 134.762 21.4618C134.636 21.4672 134.509 21.4471 134.39 21.4025C134.272 21.3579 134.163 21.2898 134.071 21.2023C133.925 21.0391 133.825 20.8404 133.78 20.6262C133.74 20.3795 133.764 20.1265 133.85 19.8918C134.198 18.9106 134.686 18.2779 135.009 17.2778C135.439 16.0961 135.61 14.8357 135.511 13.582C135.397 12.6258 134.953 11.7395 134.255 11.076C133.673 10.4746 132.901 10.0939 132.069 9.99928C131.238 9.90462 130.4 10.1018 129.698 10.5571C129.451 10.7154 128.971 11.1332 128.66 11.1225C128.401 11.1162 128.363 10.9642 128.363 10.7996C128.381 10.7487 128.394 10.6984 128.413 10.6413C128.515 10.3693 128.489 10.1663 127.958 10.1663H123.395C123.091 10.1663 122.971 10.8184 123.604 10.8184C123.811 10.8014 124.017 10.8582 124.186 10.9787C124.355 11.0992 124.476 11.2756 124.528 11.4768C125.186 14.5686 125.186 17.7644 124.528 20.8562C124.484 21.0533 124.369 21.2272 124.204 21.3434C124.039 21.4597 123.836 21.51 123.636 21.4844C123.008 21.4844 123.003 22.1679 123.516 22.1679H129.17C129.72 22.1679 129.727 21.5158 129.1 21.5158C128.902 21.5286 128.706 21.4689 128.549 21.3477C128.391 21.2265 128.284 21.0522 128.246 20.8574C127.912 19.3166 127.747 17.7442 127.752 16.1677C127.764 15.0288 127.638 13.6109 128.322 12.6302C128.486 12.3757 128.704 12.1607 128.961 12.0009C129.218 11.841 129.508 11.7404 129.809 11.7061C130.251 11.6727 130.69 11.8033 131.043 12.073C132.334 13.092 132.334 15.9397 131.144 19.5407C130.384 21.6766 131.004 22.0341 131.068 22.1038C131.131 22.1735 131.327 22.1798 131.473 22.1798L135.796 22.1735H141.225C141.776 22.1735 141.783 21.5214 141.156 21.5214C140.958 21.5343 140.762 21.4745 140.604 21.3534C140.447 21.2322 140.339 21.0579 140.301 20.8631C139.968 19.3223 139.802 17.7499 139.807 16.1734C139.82 15.0344 139.694 13.6165 140.384 12.6359C140.547 12.3813 140.766 12.1663 141.023 12.0065C141.28 11.8467 141.57 11.746 141.871 11.7118C142.312 11.6792 142.75 11.8072 143.104 12.0724C144.395 13.0913 144.395 15.9391 143.206 19.54C142.446 21.676 143.066 22.0334 143.13 22.1032C143.193 22.1729 143.389 22.1792 143.535 22.1792L146.769 22.1729L146.775 22.1666C147.053 22.1095 147.174 21.9153 147.123 21.7489L147.109 21.7413Z" fill="black"/>
<path d="M112.023 35.7657C110.896 35.1073 109.593 34.9559 108.397 34.4621C107.447 34.0695 106.144 33.4306 106.264 32.2345C106.422 30.6268 108.074 30.2474 109.216 30.3737C109.476 30.4051 110.406 30.6143 110.096 31.1458C109.852 31.3378 109.661 31.5887 109.542 31.8748C109.422 32.1608 109.376 32.4727 109.41 32.7811C109.444 33.0895 109.555 33.3842 109.734 33.6376C109.913 33.891 110.154 34.0947 110.433 34.2296C110.712 34.3645 111.021 34.4262 111.331 34.4088C111.641 34.3914 111.941 34.2955 112.204 34.1302C112.466 33.9649 112.682 33.7355 112.832 33.4636C112.981 33.1918 113.059 32.8864 113.058 32.5762V32.5448C113.063 32.1336 112.924 31.7334 112.665 31.414L112.659 31.4077C112.607 31.3441 112.55 31.2848 112.488 31.2306C111.362 30.0728 109.653 29.4395 107.406 29.8384C105.039 30.2562 103.684 32.2621 103.849 33.5217C104.013 34.7813 104.241 36.1671 109.443 38.0449C111.715 38.8616 112.038 40.5892 111.025 41.5321C110.428 42.0169 109.673 42.2647 108.905 42.2282C107.9 42.2031 106.69 41.9769 106.823 41.3738C107.094 41.2285 107.32 41.012 107.477 40.7477C107.635 40.4834 107.717 40.1812 107.715 39.8736C107.693 39.3475 107.475 38.8486 107.104 38.475C106.732 38.1014 106.235 37.8801 105.709 37.8545C105.197 37.8694 104.71 38.0808 104.349 38.4449C103.989 38.809 103.782 39.2979 103.772 39.8102C103.764 40.246 103.925 40.6681 104.221 40.9875H104.209C105.071 41.8978 106.187 42.5265 107.413 42.7911C109.533 43.3414 112.115 42.6265 113.356 40.7657C113.712 40.2362 113.904 39.6129 113.906 38.9747C113.9 38.3217 113.724 37.6817 113.393 37.1185C113.063 36.5554 112.59 36.0889 112.023 35.7657Z" fill="black"/>
<path d="M121.629 36.5636C121.18 35.7852 120.75 36.3481 121.098 36.9625C121.301 37.4407 121.417 37.9513 121.44 38.4702C121.535 39.3309 121.477 40.4447 120.82 41.0905C120.601 41.2941 120.32 41.4169 120.022 41.4386C119.029 41.4386 118.548 40.6414 118.548 39.2869C118.548 38.4897 118.548 34.4389 118.554 31.142C118.757 30.9864 119.007 30.9039 119.263 30.9077C119.593 30.9181 119.913 31.0177 120.191 31.1961C120.468 31.3744 120.692 31.6248 120.838 31.9204L121.32 30.3253H119.038C118.865 30.3296 118.696 30.2761 118.557 30.1733V26.7118C118.557 26.7181 118.551 26.7118 118.551 26.7118C118.544 26.3192 118.164 26.1866 118.048 26.845C117.675 28.8767 114.175 30.4146 113.877 30.5157C113.579 30.6168 113.593 30.9272 114.01 30.9774C114.466 30.99 114.985 30.6294 115.181 31.5661C115.188 34.0595 115.169 38.9577 115.169 39.4452C115.169 40.0779 115.371 42.793 118.65 42.793C122.11 42.7968 122.857 38.8541 121.629 36.5636Z" fill="black"/>
<path d="M138.06 30.3165C137.832 30.3165 136.965 30.3228 136.965 30.3228C136.32 30.3228 133.687 30.3291 133.357 30.3291C133.028 30.3291 133.053 30.62 133.224 30.728C133.609 30.9335 133.922 31.2512 134.122 31.6389C134.322 32.0265 134.4 32.4658 134.344 32.8985C134.004 34.0221 133.54 35.1046 132.962 36.1263C132.837 36.3669 132.608 36.4235 132.443 36.2212C131.763 34.8025 131.337 33.275 131.187 31.7087C131.174 31.4492 131.124 31.1514 131.501 31.0126C131.878 30.8738 131.868 30.3216 131.507 30.3216H126.786C126.103 30.3216 126.805 30.9039 127.337 31.6314C127.388 31.7074 127.622 32.1126 127.957 32.7704C127.951 32.812 127.947 32.8539 127.945 32.896C127.604 34.0196 127.141 35.1021 126.563 36.1238C126.437 36.3644 126.208 36.421 126.044 36.2187C125.363 34.7999 124.938 33.2724 124.787 31.7062C124.775 31.4467 124.724 31.1489 125.101 31.0101C125.478 30.8712 125.468 30.319 125.108 30.319H120.387C119.703 30.319 120.064 30.9014 120.595 31.6289C121.633 33.1033 122.513 34.6825 123.222 36.3405C123.86 37.9017 124.406 39.4993 124.855 41.1251C124.918 41.3468 125.254 42.6755 125.304 42.8213C125.38 43.0368 125.633 43.0619 125.709 42.8464C126.191 40.8656 126.646 40.005 127.842 39.0362C128.425 38.555 127.931 38.2516 127.646 38.0939C127.386 37.9342 127.147 37.7404 126.938 37.5178C126.913 37.4326 126.905 37.3432 126.916 37.255C126.927 37.1668 126.956 37.0818 127 37.0052C127.165 36.6634 127.893 34.885 128.425 33.7083C128.847 34.576 129.248 35.4539 129.627 36.3412C130.267 37.9019 130.812 39.4996 131.26 41.1257C131.323 41.3475 131.659 42.6762 131.71 42.8219C131.786 43.0374 132.039 43.0625 132.115 42.847C132.596 40.8662 133.051 40.0056 134.248 39.0369C134.83 38.5556 134.336 38.2522 134.052 38.0945C133.791 37.9348 133.553 37.7411 133.343 37.5185C133.318 37.4332 133.311 37.3438 133.321 37.2556C133.332 37.1675 133.361 37.0825 133.406 37.0058C133.628 36.5441 134.906 33.3923 135.304 32.7722C135.547 32.3172 135.883 31.9182 136.289 31.6009C136.696 31.2836 137.165 31.0552 137.665 30.9303C137.851 30.9 138.032 30.8447 138.203 30.7657C138.464 30.5634 138.349 30.3165 138.06 30.3165Z" fill="black"/>
<path d="M127.261 31.5001C127.053 31.2783 126.54 30.8292 126.261 30.8229C126.226 30.8209 126.192 30.8118 126.161 30.796C126.13 30.7803 126.102 30.7583 126.079 30.7314C126.057 30.7045 126.04 30.6733 126.03 30.6397C126.021 30.6061 126.018 30.5709 126.022 30.5361C126.026 30.5014 126.038 30.4679 126.055 30.4377C126.073 30.4076 126.097 30.3814 126.125 30.3608C126.154 30.3402 126.186 30.3256 126.22 30.318C126.254 30.3104 126.29 30.3099 126.324 30.3165C126.767 30.3228 128.083 30.3228 128.083 30.3228L128.007 31.4241" fill="black"/>
<path d="M141.336 29.5953C141.172 29.3485 140.628 29.5256 140.349 29.6714C139.307 30.1933 138.371 30.9058 137.59 31.7721C136.818 32.6943 136.281 33.7893 136.023 34.9639C135.765 36.1385 135.795 37.3579 136.11 38.5186C137.299 42.3288 141.575 44.221 144.596 42.2207C146.552 40.9234 147.4 38.55 147.33 36.2652C147.31 35.527 147.191 34.7948 146.976 34.0884C146.381 32.1453 144.457 30.0445 142.216 30.5703C141.451 30.7478 140.755 31.1486 140.217 31.7219C139.584 32.6077 140.375 32.5637 140.845 32.5323C143.528 32.5009 144.756 35.184 145.123 36.3801C145.563 37.8106 145.908 40.6332 144.028 41.2721C142.402 41.8224 140.813 40.3298 139.952 39.0507C139.646 38.5539 139.379 38.0333 139.155 37.494C137.794 34.4119 138.725 31.7602 140.579 30.4692C141.311 29.9748 141.488 29.8674 141.336 29.5953Z" fill="black"/>
<path d="M153.272 29.5953C153.108 29.3485 152.564 29.5256 152.285 29.6714C151.242 30.1933 150.306 30.9058 149.525 31.7721C148.752 32.6935 148.214 33.7885 147.956 34.9634C147.698 36.1382 147.729 37.3581 148.045 38.5186C149.235 42.3288 153.51 44.221 156.531 42.2207C158.487 40.9234 159.335 38.55 159.265 36.2652C159.245 35.527 159.126 34.7948 158.911 34.0884C158.316 32.1453 156.392 30.0445 154.152 30.5703C153.386 30.7478 152.69 31.1486 152.152 31.7219C151.519 32.6077 152.31 32.5637 152.78 32.5323C155.463 32.5009 156.692 35.184 157.058 36.3801C157.498 37.8106 157.843 40.6332 155.963 41.2721C154.337 41.8224 152.748 40.3298 151.888 39.0507C151.581 38.5539 151.314 38.0333 151.09 37.494C149.73 34.4119 150.66 31.7602 152.515 30.4692C153.247 29.9748 153.424 29.8674 153.272 29.5953Z" fill="black"/>
<path d="M96.3396 24.6399H96.2636C96.0123 24.6462 94.9412 24.6462 94.9412 24.6462H93.872L91.5934 24.6525H90.8653C90.4921 24.6525 90.5236 24.9817 90.7133 25.1079C91.2262 25.3805 91.6517 25.7924 91.9407 26.2962C92.2297 26.8001 92.3704 27.3753 92.3466 27.9557C92.3278 28.6769 91.138 34.525 90.5179 37.0309C90.4482 37.1767 90.3219 37.2144 90.2522 37.0247C89.9293 36.0245 89.651 34.8347 89.3155 33.6197C88.5811 30.9743 87.8027 28.1831 87.4421 26.5698L87.4233 26.4938C87.3919 26.3681 87.3724 26.2469 87.3473 26.1395C87.3096 25.9886 87.3205 25.8297 87.3785 25.6854C87.4365 25.5411 87.5386 25.4188 87.6702 25.336L87.7079 25.3171C87.8913 25.216 88.1759 25.1714 88.2777 25.0954C88.5434 24.8931 88.4297 24.6462 88.1382 24.6462H88.0622C87.8109 24.6525 86.7398 24.6525 86.7398 24.6525H85.6718L83.3932 24.6587H82.6632C82.2901 24.6587 82.3215 24.9879 82.5112 25.1142C83.1839 25.4992 83.7027 26.1052 83.9794 26.8293L84.0171 26.9549L84.3839 28.1887C84.4713 28.4981 84.4799 28.8244 84.4091 29.138C83.8902 31.1062 82.9013 34.6757 82.4346 36.6817C82.3774 36.8073 82.27 36.8525 82.2002 36.7445C81.9094 35.8021 81.6562 34.7254 81.3521 33.6247C80.8496 31.8274 80.3395 29.9666 79.9405 28.4545C79.7822 27.3658 80.3803 27.3469 80.7377 26.9354C81.0519 26.5937 80.6366 26.4416 80.4971 26.4542C78.953 26.5051 77.6111 24.4546 75.004 23.7774C74.7443 23.7205 74.4788 23.6949 74.213 23.7013C73.0978 23.7002 72.0277 24.1416 71.2377 24.9288C70.4477 25.716 70.0024 26.7845 69.9996 27.8997C69.9656 28.8593 70.2801 29.7987 70.885 30.5444C71.4899 31.29 72.3443 31.7915 73.2902 31.9562C73.8559 32.0392 74.4331 31.9271 74.9266 31.6383C75.4201 31.3495 75.8006 30.9013 76.0054 30.3674C76.0054 30.3674 76.1938 29.7913 75.9105 29.7153C75.6385 29.6839 75.6064 29.9936 75.5336 30.3102C75.3482 30.7346 75.0148 31.077 74.5955 31.2735C74.1762 31.47 73.6997 31.5072 73.255 31.3782C72.5353 31.2374 71.8856 30.8539 71.4146 30.2919C70.9435 29.7298 70.6795 29.0231 70.6667 28.2899C70.6598 27.8733 70.737 27.4596 70.8938 27.0736C71.0506 26.6875 71.2837 26.3372 71.5792 26.0434C71.8747 25.7497 72.2265 25.5187 72.6134 25.3642C73.0004 25.2097 73.4145 25.1349 73.8311 25.1444C74.2491 25.1622 74.6544 25.2928 75.0043 25.5223C75.3541 25.7518 75.6353 26.0716 75.8181 26.4479C76.8622 29.6123 79.2482 38.3144 79.9889 42.4676C80.1472 43.3408 80.2107 44.4779 80.2546 44.6513C80.2574 44.706 80.2793 44.758 80.3166 44.7981C80.3538 44.8383 80.404 44.8641 80.4584 44.8709C80.5128 44.8777 80.5678 44.8652 80.6138 44.8355C80.6598 44.8058 80.6939 44.7608 80.7101 44.7084C81.3936 42.4996 82.248 41.3732 83.6627 40.3605C84.3538 39.8542 84.291 39.9742 83.5044 39.2781C83.2827 39.075 83.0946 38.8379 82.9472 38.5757C82.8363 38.3615 82.8049 38.1149 82.8586 37.8797C83.1815 36.3292 84.181 32.8043 84.7383 30.6652C84.7473 30.6238 84.7694 30.5865 84.8012 30.5586C84.833 30.5308 84.873 30.5138 84.9151 30.5103C84.9573 30.5068 84.9995 30.5169 85.0355 30.5391C85.0715 30.5613 85.0994 30.5945 85.1152 30.6338L85.1529 30.7594C86.3113 34.7907 87.6714 39.9943 88.0201 42.5072C88.1457 43.3867 88.1596 44.4817 88.2035 44.6588C88.2733 44.9101 88.5578 44.9566 88.659 44.716C89.3425 42.5071 90.1969 41.3807 91.6116 40.3681C92.3027 39.8617 92.2399 39.9817 91.4533 39.2856C91.3163 39.1623 91.1933 39.0243 91.0864 38.8741C91.0186 38.7672 90.9725 38.6478 90.951 38.5229C90.9294 38.3981 90.9328 38.2702 90.9608 38.1467C91.4357 35.9441 92.5238 30.9761 92.8656 29.8749C93.291 28.3873 94.0581 27.0198 95.1058 25.8813C95.3452 25.6576 95.6159 25.4698 95.9093 25.324C96.0927 25.2229 96.3773 25.1783 96.4791 25.1023C96.7511 24.8868 96.6361 24.6399 96.3396 24.6399Z" fill="black"/>
<path d="M94.8846 4.74291H94.8086C94.5573 4.74919 93.4862 4.74919 93.4862 4.74919H92.4182L90.1396 4.75547H89.4115C89.0384 4.75547 89.0698 5.08466 89.2595 5.20465C89.7713 5.47519 90.1963 5.88492 90.4853 6.38656C90.7743 6.8882 90.9156 7.46132 90.8929 8.03981C90.874 8.68562 89.475 13.3495 88.7287 16.1282C88.7064 16.1438 88.6791 16.1506 88.6521 16.1471C88.6251 16.1436 88.6004 16.1301 88.5829 16.1093C88.5766 16.103 88.5766 16.0968 88.5703 16.0905C88.2795 15.1538 87.8359 14.1034 87.5325 13.0021C87.0299 11.2174 86.5198 9.36284 86.1209 7.857C85.9626 6.77457 86.5607 6.74945 86.9181 6.34424C87.2322 6.00249 86.817 5.85046 86.6775 5.86302C85.1333 5.91391 83.7915 3.87596 81.1843 3.19874C80.9249 3.14079 80.659 3.11735 80.3934 3.12901C79.8415 3.12512 79.2942 3.23004 78.7829 3.43777C78.2716 3.6455 77.8062 3.95197 77.4134 4.33966C77.0205 4.72736 76.708 5.18867 76.4935 5.69723C76.2791 6.20579 76.167 6.75162 76.1636 7.30354C76.1307 8.26078 76.446 9.19748 77.0511 9.93993C77.6562 10.6824 78.51 11.1802 79.4542 11.3411C80.0183 11.4242 80.5938 11.3137 81.087 11.0275C81.5801 10.7413 81.9617 10.2965 82.1694 9.76554C82.1694 9.76554 82.3579 9.19574 82.0745 9.11972C81.8025 9.08831 81.7705 9.39803 81.6976 9.70837C81.5107 10.1313 81.1768 10.4721 80.7578 10.6675C80.3388 10.863 79.8632 10.8999 79.419 10.7713C78.7005 10.632 78.0514 10.2503 77.5804 9.69003C77.1093 9.12978 76.8447 8.42487 76.8308 7.69303C76.8245 7.27723 76.9024 6.86445 77.0596 6.47947C77.2168 6.09448 77.4502 5.74522 77.7457 5.45264C78.0412 5.16006 78.3928 4.93019 78.7793 4.77681C79.1659 4.62344 79.5794 4.54973 79.9951 4.56009C80.4123 4.5779 80.817 4.70777 81.1667 4.93605C81.5163 5.16433 81.798 5.48259 81.9822 5.85737C83.0388 9.00916 85.6083 17.6541 86.3489 21.7865C86.5073 22.6598 86.6273 23.2484 86.6719 23.4199C86.6746 23.4746 86.6965 23.5266 86.7338 23.5668C86.771 23.607 86.8212 23.6327 86.8756 23.6395C86.93 23.6464 86.985 23.6338 87.031 23.6041C87.077 23.5744 87.1111 23.5294 87.1273 23.4771C87.8108 21.2746 88.608 20.6985 90.0259 19.6864C90.717 19.1838 90.6541 19.3095 89.8676 18.604C89.6478 18.4014 89.4599 18.1667 89.3104 17.9079C89.2529 17.7997 89.2165 17.6816 89.203 17.5599C89.7916 15.155 91.0952 10.9271 91.4055 9.92762C91.8327 8.44454 92.5998 7.08147 93.6457 5.94658C93.8837 5.72298 94.1547 5.53736 94.4492 5.39626C94.6327 5.29511 94.9173 5.25051 95.019 5.17449C95.2892 4.98917 95.1748 4.74291 94.8846 4.74291Z" fill="black"/>
</svg>
